PathFileType	4	(X/Y/Z)	/Users/visionmauri/4_3_2_f_1_Sports2D/4_3_2_f_1_Sports2D_m_person00.trc
DataRate	CameraRate	NumFrames	NumMarkers	Units	OrigDataRate	OrigDataStartFrame	OrigNumFrames
30.0	30.0	6	22	m	30.0	135	360
Frame#	Time	Hip			RHip			RKnee			RAnkle			RBigToe			RSmallToe			RHeel			LHip			LKnee			LAnkle			LBigToe			LSmallToe			LHeel			Neck			Head			Nose			RShoulder			RElbow			RWrist			LShoulder			LElbow			LWrist			
		X1	Y1	Z1	X2	Y2	Z2	X3	Y3	Z3	X4	Y4	Z4	X5	Y5	Z5	X6	Y6	Z6	X7	Y7	Z7	X8	Y8	Z8	X9	Y9	Z9	X10	Y10	Z10	X11	Y11	Z11	X12	Y12	Z12	X13	Y13	Z13	X14	Y14	Z14	X15	Y15	Z15	X16	Y16	Z16	X17	Y17	Z17	X18	Y18	Z18	X19	Y19	Z19	X20	Y20	Z20	X21	Y21	Z21	X22	Y22	Z22
135	4.512534818941504	1.0459682873966678	0.9647211457822851	0.0301	0.9822610963604904	0.9713250389362486	0.0301	1.040361226873587	0.6630628838363718	0.129	0.9531645265300909	0.29910976208420814	0.023	1.070577371711458	0.20594108669383443	0.2179	1.0295074476008181	0.20174638757433114	0.1804	0.9174994251919393	0.2384884158766969	-0.0119	1.1114307312170946	0.953009119994006	0.0301	1.084475355004061	0.6532359175621307	0.129	0.9792730785121933	0.3342945994116312	0.023	1.0747950322936366	0.24252783507753028	0.2179	1.0755310893180254	0.26121799620413744	0.1804	0.9374276489497262	0.27999434512356086	-0.0119	1.1501652089306738	1.4022692405236452	0.0008	1.2440917496479327	1.6022543443398447	0.0655	1.2605977530861812	1.4542184457389047	0.1076	1.0336170937810665	1.3816552298859859	-0.01275	0.9742146146477674	1.1446856849227496	0.0702	1.1364902659437024	0.978472757479908	0.1076	1.2368623597124269	1.3474171695647235	-0.01275	1.2676736073246035	1.1449116149400078	0.0702	1.3369759721259233	0.9678076187930287	0.1076
136	4.545961002785516	1.047245421160355	0.96313451676573	0.0301	0.9815131488679394	0.9700167329512159	0.0301	1.021614629245816	0.6585787180176103	0.129	0.9396684163866172	0.2927734871797934	0.023	1.05544238315633	0.20337597790826267	0.2179	1.0141258110340425	0.1949327405117516	0.1804	0.9013898969073485	0.2335479754669913	-0.0119	1.112162424725833	0.9518988835325021	0.0301	1.0834090405272991	0.6503562534085137	0.129	0.9808961181468617	0.3344978179249875	0.023	1.0735959195754445	0.25267004194807363	0.2179	1.0742897336798825	0.26781184985458495	0.1804	0.9407877013334924	0.28302876065183785	-0.0119	1.1485279851518768	1.4020885444176714	0.0008	1.2434549663425287	1.5996745180896415	0.0655	1.2588620631400256	1.45680338416609	0.1076	1.0303402428639659	1.3784660873057355	-0.01275	0.9551741023518884	1.147392629099567	0.0702	1.0968076101123239	0.9816841841798097	0.1076	1.2345600180231937	1.3461844750065537	-0.01275	1.267556549972633	1.1433667168711534	0.0702	1.3358370069280703	0.9683037228605383	0.1076
137	4.579387186629527	1.0482252714729237	0.9602852100684247	0.0301	0.9816094320633713	0.966817711368835	0.0301	0.999368939370535	0.6506021886924034	0.129	0.9260877983085826	0.28940423520670694	0.023	1.0450594454606705	0.203394216492193	0.2179	1.0012027742423588	0.19270150674893682	0.1804	0.8856833318993402	0.23464214826693583	-0.0119	1.1122192714084007	0.9488866874478299	0.0301	1.0818225804466348	0.6450444336009209	0.129	0.9840323892380212	0.3334706630967673	0.023	1.0773047055256117	0.2595398610159418	0.2179	1.0772651648392886	0.27513409904198577	0.1804	0.9450934408728929	0.2860801547964699	-0.0119	1.146686492328087	1.4020766160877367	0.0008	1.238376980851009	1.5976888626531915	0.0655	1.258402179062873	1.4593502164075762	0.1076	1.0286474643163084	1.3762754603331933	-0.01275	0.9368619072131518	1.1505597109149117	0.0702	1.0584653704375697	0.984179099898135	0.1076	1.2312025930148456	1.3456377429877266	-0.01275	1.2654334579901911	1.1419359735168213	0.0702	1.3340422165179304	0.9689863550392721	0.1076
138	4.612813370473538	1.0504749837862866	0.9566339422769081	0.0301	0.9843599071928744	0.9620612720241142	0.0301	0.9852844244269228	0.6447725962013432	0.129	0.9153385115450166	0.28558638358314875	0.023	1.0365639722745452	0.20128853668875993	0.2179	0.9899494471699184	0.1899686022880438	0.1804	0.8730876964406215	0.23531429552962663	-0.0119	1.1135615149776572	0.9449603463379875	0.0301	1.0820773591327428	0.6404739707952025	0.129	0.9859575663466876	0.33252950460288494	0.023	1.081182235158931	0.26091270084096896	0.2179	1.0810247499753896	0.2808179690731945	0.1804	0.9478499837149492	0.28764145892703813	-0.0119	1.1438625854716085	1.4021090472142292	0.0008	1.2314974179640787	1.5974845305384076	0.0655	1.2572302086027618	1.460877008583306	0.1076	1.0265196232153493	1.3750787385323964	-0.01275	0.9181992310014052	1.1544576875480153	0.0702	1.0182250352521953	0.9852415313505835	0.1076	1.2288197637969702	1.3458814923548885	-0.01275	1.2619162887663646	1.141717291905006	0.0702	1.3324189755053057	0.9705423305081478	0.1076
139	4.646239554317549	1.0533876549649512	0.9534521422436651	0.0301	0.9887896523667257	0.9580695326463949	0.0301	0.9813130227269345	0.6453746877595163	0.129	0.9097673821826859	0.280840084852543	0.023	1.0279330752193805	0.19655964957609937	0.2179	0.9808511493318266	0.18478309126372394	0.1804	0.8667184221935764	0.23180945863246516	-0.0119	1.1151737943486613	0.9425487723469351	0.0301	1.0854194201378644	0.6386751960821941	0.129	0.986157753418714	0.33220873405391455	0.023	1.0807464139753842	0.25941356199323157	0.2179	1.083008849628506	0.28382933912027003	0.1804	0.9478996636610911	0.2876548742979502	-0.0119	1.1401802376657797	1.4022893684531028	0.0008	1.225701451486504	1.5983415074297551	0.0655	1.252501710363262	1.4613005058264499	0.1076	1.0216716994457073	1.3745353036359576	-0.01275	0.8995392167440684	1.1582192499590116	0.0702	0.975569387936492	0.9862934392761699	0.1076	1.2282422328502576	1.3461045894540402	-0.01275	1.2594460322883447	1.1422270782752109	0.0702	1.3313530654862198	0.9717255704931818	0.1076
140	4.67966573816156	1.054878226762841	0.9518384361445321	0.0301	0.9915163970103749	0.9572406021208135	0.0301	0.9812188290645596	0.6499644490275491	0.129	0.9082298253737137	0.2773609394144329	0.023	1.021217143040587	0.19178468620294564	0.2179	0.9754158913072695	0.18025788646053795	0.1804	0.8649803104941892	0.22760176774224514	-0.0119	1.1158916015261409	0.9422415348930145	0.0301	1.0903727498281732	0.6391624250955331	0.129	0.9859951603535605	0.33260262742426855	0.023	1.0768602635225943	0.2576807824912529	0.2179	1.0829443080616101	0.28335781198682203	0.1804	0.9469161058454552	0.2878076067439153	-0.0119	1.1368220475679554	1.4028787264107379	0.0008	1.2206959895663476	1.5990781017351932	0.0655	1.2461309669191134	1.4604913593608242	0.1076	1.0144147159528034	1.3749829923912382	-0.01275	0.883125181464648	1.1638660186488266	0.0702	0.9306121129100882	0.9936884103808986	0.1076	1.2285486752444041	1.3460063581546493	-0.01275	1.2585631968280107	1.1424224926053865	0.0702	1.3308820343023364	0.9712838267699807	0.1076
